<svg width="160" height="61" viewBox="0 0 160 61" fill="none" xmlns="http://www.w3.org/2000/svg">
<path d="M82.9827 0H69.0637V61H82.9827V0Z" fill="#CD1817"/>
<path d="M6.1499 24.9026L4.73878 30.1219H0L6.18069 9.78931H12.1484L18.4484 30.127H13.53L11.9688 24.9026H6.1499ZM11.2812 21.4627L10.0202 17.1479C9.68923 15.9402 9.33004 14.4021 9.02986 13.2254H8.94006C8.67066 14.4331 8.33969 15.9711 8.04208 17.1479L6.81312 21.4627H11.2812Z" fill="white"/>
<path d="M33.5736 21.5284H26.1332V26.3554H34.4433V30.127H21.574V9.79053H34.0174V13.5621H26.1332V17.7865H33.5736V21.5284Z" fill="white"/>
<path d="M55.4312 29.1928C53.2519 29.917 50.9758 30.3038 48.6809 30.3399C44.9915 30.3399 42.3219 29.4044 40.4605 27.6303C39.5148 26.6484 38.7751 25.4853 38.2854 24.21C37.7957 22.9348 37.566 21.5735 37.6101 20.2072C37.6408 13.4486 42.5297 9.58669 49.1555 9.58669C51.0703 9.53508 52.9765 9.86303 54.7654 10.5518L53.8058 14.264C52.332 13.6194 50.7317 13.3202 49.1261 13.3892C45.316 13.3892 42.4053 15.5608 42.4053 19.9697C42.4053 24.1942 45.0454 26.638 48.7951 26.638C49.545 26.6679 50.2948 26.576 51.0157 26.3658V22.0716H47.8958V18.4807H55.426L55.4312 29.1928Z" fill="white"/>
<path d="M65.1647 9.78931H60.6042V30.127H65.1647V9.78931Z" fill="white"/>
<path d="M70.6495 25.4199C72.2206 26.226 73.9545 26.659 75.718 26.6857C77.8193 26.6857 78.9251 25.8109 78.9251 24.4535C78.9251 23.2161 77.9642 22.4626 75.5358 21.6148C72.1748 20.4084 69.9555 18.5375 69.9555 15.5504C69.9555 12.0808 72.8649 9.45502 77.6063 9.45502C79.3814 9.4048 81.1449 9.75763 82.7658 10.4873L81.7396 14.1685C80.4321 13.5259 78.9948 13.1956 77.5396 13.2033C75.5589 13.2033 74.5993 14.1388 74.5993 15.1646C74.5993 16.4614 75.709 17.0355 78.3503 18.0317C81.9191 19.3891 83.5702 21.2574 83.5702 24.1567C83.5702 27.5657 80.9904 30.4624 75.4409 30.4624C73.4604 30.4781 71.5018 30.045 69.7104 29.1953L70.6495 25.4199Z" fill="white"/>
<path d="M86.2065 30.5154H92.5168V32.2586H88.0615V34.2792H92.1499V35.8895H88.0615V38.2004H92.6104V39.9436H86.2065V30.5154Z" fill="#F9F9F9"/>
<path d="M93.8623 30.5154H95.7057L99.2271 36.8379H99.2502V30.5154H100.987V39.9449H99.1322L95.6224 33.6327H95.5993V39.9449H93.8623V30.5154Z" fill="#F9F9F9"/>
<path d="M104.486 32.2586H101.958V30.5154H108.87V32.2586H106.341V39.9449H104.486V32.2586Z" fill="#F9F9F9"/>
<path d="M109.839 30.5154H116.149V32.2586H111.695V34.2792H115.784V35.8895H111.695V38.2004H116.244V39.9436H109.84L109.839 30.5154Z" fill="#F9F9F9"/>
<path d="M117.496 30.5152H122.045C122.393 30.5109 122.739 30.5781 123.061 30.7126C123.36 30.8395 123.628 31.0312 123.846 31.2739C124.063 31.5167 124.232 31.7993 124.342 32.1061C124.458 32.4301 124.516 32.7722 124.513 33.1165C124.528 33.6226 124.417 34.1244 124.189 34.5758C123.963 34.9835 123.607 35.302 123.178 35.479V35.5061C123.375 35.5609 123.557 35.6587 123.712 35.7925C123.868 35.9263 123.992 36.0928 124.076 36.2803C124.274 36.7322 124.385 37.2185 124.4 37.7125C124.4 37.7474 124.4 37.8531 124.412 38.0299C124.436 38.4789 124.469 38.8617 124.512 39.1783C124.539 39.4478 124.622 39.7087 124.754 39.9447H122.899C122.824 39.7496 122.774 39.5452 122.752 39.337C122.724 39.1082 122.699 38.8131 122.675 38.4519C122.651 38.1172 122.627 37.8617 122.604 37.6854C122.585 37.2865 122.442 36.9036 122.196 36.5899C122.061 36.4695 121.903 36.3781 121.731 36.3213C121.559 36.2645 121.378 36.2435 121.198 36.2596H119.343V39.9447H117.488L117.496 30.5152ZM119.351 34.7809H121.383C121.556 34.7943 121.73 34.7725 121.894 34.7168C122.059 34.6612 122.21 34.5729 122.34 34.4571C122.576 34.1718 122.691 33.804 122.659 33.4339C122.674 33.2556 122.654 33.0761 122.599 32.9059C122.544 32.7358 122.456 32.5783 122.34 32.4429C122.209 32.3291 122.057 32.2424 121.893 32.1879C121.729 32.1335 121.555 32.1122 121.383 32.1255H119.351V34.7809Z" fill="#F9F9F9"/>
<path d="M126.028 30.5152H129.833C130.284 30.505 130.732 30.588 131.15 30.7591C131.504 30.9073 131.818 31.1382 132.066 31.4327C132.302 31.718 132.478 32.0479 132.586 32.403C132.806 33.1437 132.806 33.9331 132.586 34.6739C132.479 35.029 132.302 35.3589 132.066 35.6442C131.818 35.9388 131.504 36.1697 131.15 36.3177C130.732 36.4889 130.284 36.5719 129.833 36.5616H127.883V39.9422H126.028V30.5152ZM127.883 34.9526H129.32C129.535 34.955 129.75 34.9351 129.961 34.8932C130.144 34.856 130.318 34.7842 130.474 34.6816C130.631 34.5761 130.754 34.4268 130.828 34.252C130.993 33.7912 130.993 33.2869 130.828 32.8262C130.753 32.6503 130.63 32.4992 130.474 32.3901C130.32 32.2841 130.145 32.212 129.961 32.1784C129.749 32.1413 129.535 32.1236 129.32 32.1255H127.883V34.9526Z" fill="#F9F9F9"/>
<path d="M133.91 30.5152H138.464C138.812 30.5109 139.158 30.5781 139.48 30.7126C139.779 30.8395 140.047 31.0311 140.265 31.2739C140.482 31.5167 140.65 31.7993 140.761 32.1061C140.877 32.4301 140.935 32.7722 140.932 33.1165C140.947 33.6226 140.836 34.1245 140.607 34.5758C140.382 34.9833 140.026 35.3018 139.598 35.479V35.5061C139.795 35.5609 139.977 35.6587 140.133 35.7925C140.288 35.9263 140.412 36.0928 140.496 36.2803C140.695 36.7322 140.805 37.2185 140.82 37.7125C140.82 37.7474 140.82 37.8531 140.832 38.0299C140.855 38.4789 140.888 38.8617 140.932 39.1783C140.96 39.4478 141.042 39.7087 141.174 39.9447H139.319C139.244 39.7496 139.194 39.5452 139.172 39.337C139.144 39.1082 139.118 38.8131 139.095 38.4519C139.071 38.1172 139.047 37.8617 139.024 37.6854C139.005 37.2865 138.862 36.9036 138.616 36.5899C138.481 36.4695 138.323 36.3781 138.151 36.3213C137.98 36.2645 137.798 36.2435 137.618 36.2596H135.77V39.9447H133.91V30.5152ZM135.765 34.7809H137.797C137.97 34.7943 138.143 34.7725 138.308 34.7168C138.472 34.6612 138.624 34.5729 138.754 34.4571C138.99 34.1718 139.105 33.804 139.073 33.4339C139.088 33.2556 139.068 33.0761 139.013 32.9059C138.958 32.7357 138.87 32.5783 138.754 32.4429C138.623 32.3291 138.471 32.2424 138.307 32.1879C138.142 32.1335 137.969 32.1122 137.797 32.1255H135.77L135.765 34.7809Z" fill="#F9F9F9"/>
<path d="M144.296 30.5154H142.441V39.9449H144.296V30.5154Z" fill="#F9F9F9"/>
<path d="M147.191 36.8146C147.172 37.0595 147.21 37.3055 147.301 37.5334C147.392 37.7613 147.534 37.9648 147.717 38.1281C148.1 38.4254 148.575 38.5775 149.059 38.5578C149.243 38.5574 149.427 38.5397 149.608 38.5049C149.793 38.47 149.973 38.4078 150.14 38.3204C150.305 38.2367 150.445 38.1118 150.548 37.9578C150.655 37.7862 150.709 37.5862 150.702 37.3836C150.708 37.1933 150.654 37.0058 150.548 36.8481C150.438 36.6964 150.298 36.5701 150.135 36.4778C149.955 36.3733 149.765 36.2869 149.568 36.2198C149.363 36.1492 149.087 36.0701 148.741 35.9823C148.512 35.9118 148.331 35.8589 148.197 35.8236C147.863 35.7229 147.536 35.604 147.215 35.4675C146.937 35.3458 146.677 35.1831 146.446 34.9849C146.207 34.7786 146.017 34.5211 145.89 34.2314C145.744 33.8875 145.674 33.5161 145.684 33.1424C145.675 32.7135 145.766 32.2886 145.949 31.9011C146.118 31.5485 146.364 31.2395 146.67 30.9979C146.974 30.7595 147.318 30.5781 147.686 30.4624C148.06 30.3435 148.449 30.2834 148.841 30.2844C149.278 30.2819 149.713 30.3397 150.135 30.456C150.526 30.5632 150.891 30.7474 151.21 30.9979C151.527 31.2521 151.78 31.5779 151.949 31.9489C152.139 32.3807 152.232 32.8495 152.221 33.3218H150.425C150.437 33.1121 150.399 32.9026 150.316 32.7099C150.233 32.5173 150.107 32.3468 149.946 32.2121C149.593 31.9842 149.178 31.8732 148.759 31.8947C148.44 31.8851 148.126 31.9753 147.861 32.1527C147.735 32.2434 147.634 32.365 147.567 32.5059C147.501 32.6468 147.472 32.8024 147.482 32.9579C147.475 33.1112 147.508 33.2638 147.577 33.4005C147.658 33.5266 147.773 33.6272 147.908 33.6908C148.11 33.7931 148.319 33.8794 148.534 33.9488C148.791 34.0349 149.216 34.1639 149.811 34.3359C149.875 34.3468 149.939 34.3645 150 34.3888C150.023 34.3974 150.047 34.4017 150.071 34.4017C150.336 34.4726 150.596 34.5588 150.851 34.6598C151.117 34.7743 151.367 34.9231 151.595 35.1024C151.869 35.318 152.092 35.5932 152.245 35.9075C152.427 36.2884 152.515 36.7074 152.502 37.1294C152.516 37.5394 152.441 37.9475 152.282 38.3252C152.122 38.7028 151.883 39.0407 151.58 39.3152C150.853 39.9131 149.929 40.2127 148.992 40.1539C148.53 40.1564 148.07 40.0894 147.627 39.9552C147.209 39.8287 146.819 39.62 146.482 39.341C146.14 39.055 145.869 38.6933 145.69 38.2842C145.488 37.8159 145.39 37.3094 145.4 36.7991L147.191 36.8146Z" fill="#F9F9F9"/>
<path d="M153.595 30.5154H159.906V32.2586H155.45V34.2792H159.539V35.8895H155.45V38.2004H159.999V39.9436H153.594L153.595 30.5154Z" fill="#F9F9F9"/>
</svg>
